<mxfile host="app.diagrams.net" modified="2023-08-15T02:20:24.469Z" agent="Mozilla/5.0 (Windows NT 10.0; Win64; x64; rv:109.0) Gecko/20100101 Firefox/117.0" etag="6inQnRP2KH135RsgCwbt" version="21.6.8" type="github">
  <diagram name="Страница — 1" id="Mcy9m6y9gIoatQCNLI4w">
    <mxGraphModel dx="1434" dy="782" grid="1" gridSize="10" guides="1" tooltips="1" connect="1" arrows="1" fold="1" page="1" pageScale="1" pageWidth="827" pageHeight="1169" math="0" shadow="0">
      <root>
        <mxCell id="0" />
        <mxCell id="1" parent="0" />
        <mxCell id="DjMyXk5yeuOmFSVk6Z2i-1" value="" style="ellipse;html=1;shape=startState;fillColor=#000000;strokeColor=#000000;" vertex="1" parent="1">
          <mxGeometry x="190" y="30" width="30" height="30" as="geometry" />
        </mxCell>
        <mxCell id="DjMyXk5yeuOmFSVk6Z2i-2" value="" style="edgeStyle=orthogonalEdgeStyle;html=1;verticalAlign=bottom;endArrow=open;endSize=8;strokeColor=#050000;rounded=0;" edge="1" source="DjMyXk5yeuOmFSVk6Z2i-1" parent="1">
          <mxGeometry relative="1" as="geometry">
            <mxPoint x="205" y="120" as="targetPoint" />
          </mxGeometry>
        </mxCell>
        <mxCell id="DjMyXk5yeuOmFSVk6Z2i-5" value="&lt;div&gt;Создание&lt;/div&gt;&lt;div&gt;&lt;br&gt;&lt;/div&gt;" style="edgeLabel;html=1;align=center;verticalAlign=middle;resizable=0;points=[];" vertex="1" connectable="0" parent="DjMyXk5yeuOmFSVk6Z2i-2">
          <mxGeometry x="-0.2397" y="3" relative="1" as="geometry">
            <mxPoint as="offset" />
          </mxGeometry>
        </mxCell>
        <mxCell id="DjMyXk5yeuOmFSVk6Z2i-4" value="&lt;div&gt;Создана&lt;/div&gt;" style="html=1;whiteSpace=wrap;" vertex="1" parent="1">
          <mxGeometry x="150" y="120" width="110" height="50" as="geometry" />
        </mxCell>
        <mxCell id="DjMyXk5yeuOmFSVk6Z2i-6" value="В работе" style="html=1;whiteSpace=wrap;" vertex="1" parent="1">
          <mxGeometry x="150" y="220" width="110" height="50" as="geometry" />
        </mxCell>
        <mxCell id="DjMyXk5yeuOmFSVk6Z2i-8" value="" style="endArrow=open;html=1;rounded=0;endFill=0;entryX=0.5;entryY=0;entryDx=0;entryDy=0;exitX=0.5;exitY=1;exitDx=0;exitDy=0;" edge="1" parent="1" source="DjMyXk5yeuOmFSVk6Z2i-4" target="DjMyXk5yeuOmFSVk6Z2i-6">
          <mxGeometry width="50" height="50" relative="1" as="geometry">
            <mxPoint x="390" y="270" as="sourcePoint" />
            <mxPoint x="440" y="220" as="targetPoint" />
          </mxGeometry>
        </mxCell>
        <mxCell id="DjMyXk5yeuOmFSVk6Z2i-9" value="&lt;div&gt;Передана в работу&lt;/div&gt;" style="edgeLabel;html=1;align=center;verticalAlign=middle;resizable=0;points=[];" vertex="1" connectable="0" parent="DjMyXk5yeuOmFSVk6Z2i-8">
          <mxGeometry x="-0.32" y="1" relative="1" as="geometry">
            <mxPoint as="offset" />
          </mxGeometry>
        </mxCell>
        <mxCell id="DjMyXk5yeuOmFSVk6Z2i-10" value="Выполнена" style="html=1;whiteSpace=wrap;" vertex="1" parent="1">
          <mxGeometry x="150" y="320" width="110" height="50" as="geometry" />
        </mxCell>
        <mxCell id="DjMyXk5yeuOmFSVk6Z2i-11" value="Отказана" style="html=1;whiteSpace=wrap;" vertex="1" parent="1">
          <mxGeometry x="350" y="220" width="110" height="50" as="geometry" />
        </mxCell>
        <mxCell id="DjMyXk5yeuOmFSVk6Z2i-12" value="" style="endArrow=open;html=1;rounded=0;endFill=0;entryX=0.5;entryY=0;entryDx=0;entryDy=0;exitX=0.5;exitY=1;exitDx=0;exitDy=0;" edge="1" parent="1" source="DjMyXk5yeuOmFSVk6Z2i-6" target="DjMyXk5yeuOmFSVk6Z2i-10">
          <mxGeometry width="50" height="50" relative="1" as="geometry">
            <mxPoint x="215" y="180" as="sourcePoint" />
            <mxPoint x="215" y="230" as="targetPoint" />
          </mxGeometry>
        </mxCell>
        <mxCell id="DjMyXk5yeuOmFSVk6Z2i-14" value="Выполнена" style="edgeLabel;html=1;align=center;verticalAlign=middle;resizable=0;points=[];" vertex="1" connectable="0" parent="DjMyXk5yeuOmFSVk6Z2i-12">
          <mxGeometry x="-0.32" relative="1" as="geometry">
            <mxPoint as="offset" />
          </mxGeometry>
        </mxCell>
        <mxCell id="DjMyXk5yeuOmFSVk6Z2i-16" value="" style="endArrow=open;html=1;rounded=0;endFill=0;entryX=0.5;entryY=0;entryDx=0;entryDy=0;exitX=1;exitY=1;exitDx=0;exitDy=0;" edge="1" parent="1" source="DjMyXk5yeuOmFSVk6Z2i-4" target="DjMyXk5yeuOmFSVk6Z2i-11">
          <mxGeometry width="50" height="50" relative="1" as="geometry">
            <mxPoint x="215" y="180" as="sourcePoint" />
            <mxPoint x="215" y="230" as="targetPoint" />
            <Array as="points" />
          </mxGeometry>
        </mxCell>
        <mxCell id="DjMyXk5yeuOmFSVk6Z2i-17" value="Отказ" style="edgeLabel;html=1;align=center;verticalAlign=middle;resizable=0;points=[];" vertex="1" connectable="0" parent="DjMyXk5yeuOmFSVk6Z2i-16">
          <mxGeometry x="-0.32" y="1" relative="1" as="geometry">
            <mxPoint as="offset" />
          </mxGeometry>
        </mxCell>
        <mxCell id="DjMyXk5yeuOmFSVk6Z2i-18" value="" style="ellipse;html=1;shape=endState;fillColor=#000000;strokeColor=#000000;" vertex="1" parent="1">
          <mxGeometry x="190" y="400" width="30" height="30" as="geometry" />
        </mxCell>
        <mxCell id="DjMyXk5yeuOmFSVk6Z2i-19" value="" style="endArrow=open;html=1;rounded=0;endFill=0;entryX=1;entryY=0.5;entryDx=0;entryDy=0;exitX=0;exitY=0.5;exitDx=0;exitDy=0;" edge="1" parent="1" source="DjMyXk5yeuOmFSVk6Z2i-11" target="DjMyXk5yeuOmFSVk6Z2i-6">
          <mxGeometry width="50" height="50" relative="1" as="geometry">
            <mxPoint x="270" y="180" as="sourcePoint" />
            <mxPoint x="385" y="230" as="targetPoint" />
            <Array as="points" />
          </mxGeometry>
        </mxCell>
        <mxCell id="DjMyXk5yeuOmFSVk6Z2i-20" value="Пересмотр" style="edgeLabel;html=1;align=center;verticalAlign=middle;resizable=0;points=[];" vertex="1" connectable="0" parent="DjMyXk5yeuOmFSVk6Z2i-19">
          <mxGeometry x="-0.32" y="1" relative="1" as="geometry">
            <mxPoint x="-9" y="-1" as="offset" />
          </mxGeometry>
        </mxCell>
        <mxCell id="DjMyXk5yeuOmFSVk6Z2i-22" value="" style="endArrow=open;html=1;rounded=0;endFill=0;entryX=0.433;entryY=0.233;entryDx=0;entryDy=0;exitX=0.5;exitY=1;exitDx=0;exitDy=0;entryPerimeter=0;" edge="1" parent="1" source="DjMyXk5yeuOmFSVk6Z2i-10" target="DjMyXk5yeuOmFSVk6Z2i-18">
          <mxGeometry width="50" height="50" relative="1" as="geometry">
            <mxPoint x="270" y="180" as="sourcePoint" />
            <mxPoint x="415" y="230" as="targetPoint" />
            <Array as="points" />
          </mxGeometry>
        </mxCell>
      </root>
    </mxGraphModel>
  </diagram>
</mxfile>
